<?xml version="1.0" encoding="utf-8"?>
<!-- Generator: Adobe Illustrator 19.0.1, SVG Export Plug-In . SVG Version: 6.00 Build 0)  -->
<svg version="1.1" id="Layer_1" xmlns="http://www.w3.org/2000/svg" xmlns:xlink="http://www.w3.org/1999/xlink" x="0px" y="0px"
	 viewBox="0 0 800 785" style="enable-background:new 0 0 800 785;" xml:space="preserve">
<style type="text/css">
	.st0{fill:#272526;}
</style>
<g>
	<path class="st0" d="M340.6,686.3l5-70.9l-121-15.9l-8.6-46.8l38.6-25.1l-45.2-4.4l4.7-17.2l-1.5-18.6l-27.2-3.4l-6.5-19.1
		l17.2-22.9l6.6-32.5l22.4,0.1l8.7,51.8h78.8l8.5-53.4l87,13.2l7,17.3l6.9-1.6l-8.3-27L323,394.6v-5.9l-99.8-6.1v11.7l-17.6,0.4
		l15-79.4l-12.8-4.7c-20.6-7.5-36.6-23.9-43.5-44.7l-0.2-0.6c-5.6-16.9-4.8-35.4,2.5-51.7l28.6-64.5l6,60l33.9-60l12,38.1l61.3-11.9
		c34.6-6.7,70.1-6.9,104.7-0.6l1.2,0.2c43.4,7.9,84.2,26,119.4,52.6l20.1,15.2l27.8-9.2L571,261.3l37.4-14.2l-19.5,34.9l15.7,66.3
		l-17.9-6.7l5,70.9l-18-11.4l-55.6,154.6l18.4,130.6l66.7,50.4c113.9-69.1,190.1-194.2,190.1-337.2c0-217.6-176.4-394-394-394
		s-394,176.4-394,394c0,158.1,93.1,294.4,227.5,357.2L340.6,686.3z M309.5,403.4l-4.5,49.8l-66.1-4.6l-5.7-49.2L309.5,403.4z"/>
	<circle class="st0" cx="260.6" cy="423.5" r="11.5"/>
	<polygon class="st0" points="500.8,774.6 500.8,705.2 434.1,726 367.5,705.2 367.5,774.6 434.1,753.8 	"/>
</g>
</svg>
